<?xml version="1.0" encoding="utf-8"?>
<?xml-stylesheet type="text/xsl" href="rss1.xsl"?>
<rss version="2.0" xmlns:atom="http://www.w3.org/2005/Atom" xmlns:content="http://purl.org/rss/1.0/modules/content/" xmlns:dc="http://purl.org/dc/elements/1.1/" xmlns:media="http://search.yahoo.com/mrss/">
<channel>
 <title>Getty</title>
 <link>http://www.gettyimg.com/</link>
 <atom:link href="http://www.gettyimg.com/" rel="self" type="application/rss+xml" />

 
                <item>
                <title><![CDATA[【PRORES HD】Tiesto &amp; KAROL G - Don't Be Shy (Master ProRes LPCM 1080p)]]></title>
                <link><![CDATA[https://sharemania.us/threads/tiesto-karol-g-dont-be-shy-master-prores-lpcm-1080p.240594/]]></link>
                <description><![CDATA[<article>
<blockquote class="messageText SelectQuoteContainer ugc baseHtml">
<div style="text-align: center"><img src="https://i.imgur.com/56NKYvy.png" class="bbCodeImage LbImage" alt="[​IMG]" data-url="https://i.imgur.com/56NKYvy.png" style=""> <br>
<br>
<div class="ToggleTriggerAnchor bbCodeSpoilerContainer">
<button type="button" class="button bbCodeSpoilerButton ToggleTrigger Tooltip JsOnly" data-target="> .SpoilerTarget"><span>Spoiler: <span class="SpoilerTitle">Mediainfo</span></span></button>
<div class="SpoilerTarget bbCodeSpoilerText">Format : MPEG-4<br>
Format profile : QuickTime<br>
Codec ID : qt 2005.03 (qt )<br>
File size : 3.63 GiB<br>
Duration : 3 min 7 s<br>
Overall bit rate mode : Variable<br>
Overall bit rate : 167 Mb/s<br>
Frame rate : 23.976 FPS<br>
Encoded date : 2021-08-12 06:00:59 UTC<br>
Tagged date : 2021-08-12 06:02:00 UTC<br>
Writing library : Apple QuickTime<br>
TIM : 00:59:59:23<br>
TSC : 24000<br>
TSZ : 1001<br>
<br>
Video<br>
ID : 1<br>
Format : ProRes<br>
Format version : Version 0<br>
Format profile : 422 HQ<br>
Codec ID : apch<br>
Duration : 3 min 7 s<br>
Bit rate mode : Variable<br>
Bit rate : 165 Mb/s<br>
Width : 1 920 pixels<br>
Height : 1 080 pixels<br>
Display aspect ratio : 16:9<br>
Frame rate mode : Constant<br>
Frame rate : 23.976 (24000/1001) FPS<br>
Color space : YUV<br>
Chroma subsampling : 4:2:2<br>
Scan type : Progressive<br>
Bits/(Pixel*Frame) : 3.325<br>
Stream size : 3.60 GiB (99%)<br>
Writing library : Apple<br>
Language : English<br>
Encoded date : 2021-08-12 06:00:59 UTC<br>
Tagged date : 2021-08-12 06:00:59 UTC<br>
Color primaries : BT.709<br>
Transfer characteristics : BT.709<br>
Matrix coefficients : BT.709<br>
Menus : 0<br>
<br>
Audio<br>
ID : 2<br>
Format : PCM<br>
Format settings : Little / Signed<br>
Codec ID : sowt<br>
Duration : 3 min 7 s<br>
Bit rate mode : Constant<br>
Bit rate : 1 536 kb/s<br>
Channel(s) : 2 channels<br>
Channel layout : L R<br>
Sampling rate : 48.0 kHz<br>
Bit depth : 16 bits<br>
Stream size : 34.3 MiB (1%)<br>
Language : English<br>
Encoded date : 2021-08-12 06:00:59 UTC<br>
Tagged date : 2021-08-12 06:00:59 UTC<br>
Menus : 0<br>
<br>
Other<br>
ID : 3<br>
Type : Time code<br>
Format : QuickTime TC<br>
Duration : 3 min 7 s<br>
Frame rate : 23.976 (24000/1001) FPS<br>
Time code of first frame : 00:59:59:23<br>
Time code of last frame : 01:03:06:19<br>
Time code, stripped : Yes<br>
Language : English<br>
Encoded date : 2021-08-12 06:00:59 UTC<br>
Tagged date : 2021-08-12 06:00:59 UTC</div>
</div><br>
<div class="bbCodeBlock bbCodeVfcHH HiddenContent">
<div class="attribution type">Hidden Content:</div>
<blockquote>You must either reply or click 'Like' to see the hidden information contained here.</blockquote>
</div></div>
<div class="messageTextEndMarker">&nbsp;</div>
</blockquote>
</article>]]></description>
                <author><![CDATA[SUPREME]]></author>
                </item>

                
                <item>
                <title><![CDATA[【HD Live Performances】HDTV - Pierce The Veil - Lollapalooza Brazil 2024 - HDTV 1080P DD5.1 H264-chmt]]></title>
                <link><![CDATA[https://sharemania.us/threads/pierce-the-veil-lollapalooza-brazil-2024-hdtv-1080p-dd5-1-h264-chmt.240596/]]></link>
                <description><![CDATA[<article>
<blockquote class="messageText SelectQuoteContainer ugc baseHtml">
gracias
<div class="messageTextEndMarker">&nbsp;</div>
</blockquote>
</article>]]></description>
                <author><![CDATA[chmt]]></author>
                </item>

                
                <item>
                <title><![CDATA[【HD Live Performances】WEB-DL - Jessie Reyez - Lollapalooza Brazil 2024 2160p WEB-DL DDP5.1 H.265]]></title>
                <link><![CDATA[https://sharemania.us/threads/jessie-reyez-lollapalooza-brazil-2024-2160p-web-dl-ddp5-1-h-265.240598/]]></link>
                <description><![CDATA[<article>
<blockquote class="messageText SelectQuoteContainer ugc baseHtml">
Thanks<img src="styles/default/xenforo/smilies/big_smile-48.png" class="mceSmilie" alt=":)" title="Smile    :)">
<div class="messageTextEndMarker">&nbsp;</div>
</blockquote>
</article>]]></description>
                <author><![CDATA[itunesboy]]></author>
                </item>

                
                <item>
                <title><![CDATA[【PRORES HD】Metro Boomin, The Weeknd, Diddy &amp; 21 Savage - Creepin' [Remix] (Master ProRes LPCM 1080p)]]></title>
                <link><![CDATA[https://sharemania.us/threads/metro-boomin-the-weeknd-diddy-21-savage-creepin-remix-master-prores-lpcm-1080p.240599/]]></link>
                <description><![CDATA[<article>
<blockquote class="messageText SelectQuoteContainer ugc baseHtml">
<img src="https://i.imgur.com/o6fWrOY.jpeg" class="bbCodeImage LbImage" alt="[​IMG]" data-url="https://i.imgur.com/o6fWrOY.jpeg" style=""> <br>
<br>
<b><span style="text-decoration: underline">Setlist:</span></b><br>
<br>
1. Death of an Executioner<br>
2. Caraphernelia<br>
3. Circles<br>
4. Karma Police (Radiohead cover)<br>
5. Pass the Nirvana<br>
6. A Match Into Water<br>
7. Emergency Contact<br>
8. Hold On Till May (Brought fan on stage)<br>
9. May These Noises Startle You in Your Sleep Tonight<br>
10. Hell Above<br>
11. King for a Day<br>
<br>
<br>
<div class="ToggleTriggerAnchor bbCodeSpoilerContainer">
<button type="button" class="button bbCodeSpoilerButton ToggleTrigger Tooltip JsOnly" data-target="> .SpoilerTarget"><span>Spoiler: <span class="SpoilerTitle">MediaInfo</span></span></button>
<div class="SpoilerTarget bbCodeSpoilerText">General<br>
ID : 55 (0x37)<br>
Complete name : F:\PVR\BIS HD-Lollapalooza - Ao Vivo - Bis_ Saha Stenzel Bsb Curol Ep_ 28(20240323_163958)\Lollapalooza.2024.Pierce.The.Veil.HDTV.1080P.DD5.1.H264-chmt.TS<br>
Format : MPEG-TS<br>
File size : 3.13 GiB<br>
Duration : 1 h 2 min<br>
Overall bit rate mode : Variable<br>
Overall bit rate : 7 166 kb/s<br>
<br>
Video<br>
ID : 5603 (0x15E3)<br>
Menu ID : 544 (0x220)<br>
Format : AVC<br>
Format/Info : Advanced Video Codec<br>
Codec ID : 27<br>
Encryption : Encrypted<br>
<br>
Audio<br>
ID : 5601 (0x15E1)<br>
Menu ID : 544 (0x220)<br>
Format : AC-3<br>
Format/Info : Audio Coding 3<br>
Codec ID : 6<br>
Channel(s) : 2 channels<br>
Compression mode : Lossy<br>
Language : Portuguese<br>
Encryption : Encrypted<br>
<br>
Menu<br>
ID : 5600 (0x15E0)<br>
Menu ID : 544 (0x220)<br>
Duration : 1 h 2 min<br>
List : 5603 (0x15E3) (AVC) / 5601 (0x15E1) (AC-3, Portuguese)<br>
Language : / Portuguese</div>
</div><br>
Link:<br>
<div class="bbCodeBlock bbCodeVfcHH HiddenContent">
<div class="attribution type">Hidden Content:</div>
<blockquote>You must reply before you can see the hidden data contained here.</blockquote>
</div>
<div class="messageTextEndMarker">&nbsp;</div>
</blockquote>
</article>]]></description>
                <author><![CDATA[SUPREME]]></author>
                </item>

                
                <item>
                <title><![CDATA[【PRORES HD】Lizzo - Special (Master ProRes LPCM 1080p)]]></title>
                <link><![CDATA[https://sharemania.us/threads/lizzo-special-master-prores-lpcm-1080p.240597/]]></link>
                <description><![CDATA[<article>
<blockquote class="messageText SelectQuoteContainer ugc baseHtml">
<div style="text-align: center"><br>
<a href="https://ibb.co/0qt9z7t" target="_blank" class="externalLink" rel="nofollow"><img src="https://i.ibb.co/zsJ2tMJ/lollapalooza-1-76411.png" class="bbCodeImage LbImage" alt="[​IMG]" data-url="https://i.ibb.co/zsJ2tMJ/lollapalooza-1-76411.png"></a><br>
<a href="https://ibb.co/kh7FQqM" target="_blank" class="externalLink" rel="nofollow"><img src="https://i.ibb.co/kh7FQqM/Lollapalooza-Brasil-2024-Jessie-Reyez-2160p-GLBO-WEB-DL-DDP5-1-Atmos-H-265-JL92-mkv-20240323-175033.png" class="bbCodeImage LbImage" alt="[​IMG]" data-url="https://i.ibb.co/kh7FQqM/Lollapalooza-Brasil-2024-Jessie-Reyez-2160p-GLBO-WEB-DL-DDP5-1-Atmos-H-265-JL92-mkv-20240323-175033.png"></a> <a href="https://ibb.co/w46Nm75" target="_blank" class="externalLink" rel="nofollow"><img src="https://i.ibb.co/w46Nm75/Lollapalooza-Brasil-2024-Jessie-Reyez-2160p-GLBO-WEB-DL-DDP5-1-Atmos-H-265-JL92-mkv-20240323-175036.png" class="bbCodeImage LbImage" alt="[​IMG]" data-url="https://i.ibb.co/w46Nm75/Lollapalooza-Brasil-2024-Jessie-Reyez-2160p-GLBO-WEB-DL-DDP5-1-Atmos-H-265-JL92-mkv-20240323-175036.png"></a> <a href="https://ibb.co/HCv8P2L" target="_blank" class="externalLink" rel="nofollow"><img src="https://i.ibb.co/HCv8P2L/Lollapalooza-Brasil-2024-Jessie-Reyez-2160p-GLBO-WEB-DL-DDP5-1-Atmos-H-265-JL92-mkv-20240323-175040.png" class="bbCodeImage LbImage" alt="[​IMG]" data-url="https://i.ibb.co/HCv8P2L/Lollapalooza-Brasil-2024-Jessie-Reyez-2160p-GLBO-WEB-DL-DDP5-1-Atmos-H-265-JL92-mkv-20240323-175040.png"></a><br>
​</div>
<div class="ToggleTriggerAnchor bbCodeSpoilerContainer">
<button type="button" class="button bbCodeSpoilerButton ToggleTrigger Tooltip JsOnly" data-target="> .SpoilerTarget"><span>Spoiler: <span class="SpoilerTitle">MediaInfo</span></span></button>
<div class="SpoilerTarget bbCodeSpoilerText">Formato : Matroska<br>
Versão do Formato : Version 4<br>
Tamanho do arquivo : 7.18 GiB<br>
Duração : 55 min 42s<br>
Taxa de Bits Total : 18.5 Mb/s<br>
Taxa de quadros : 30.000 FPS<br>
Programa usado : Lavf58.76.100<br>
Biblioteca usada : Lavf58.76.100<br>
ErrorDetectionType : Per level 1<br>
<br>
Vídeo<br>
ID : 1<br>
Formato : HEVC<br>
Formato/Informações : High Efficiency Video Coding<br>
Perfil do Formato : Main 10@L5.1@High<br>
ID do Codec : V_MPEGH/ISO/HEVC<br>
Duração : 55 min 42s<br>
Taxa de bits : 17.6 Mb/s<br>
Largura : 3 840 pixels<br>
Altura : 2 160 pixels<br>
Proporção da imagem : 16:9<br>
Modo de taxa de quadros : TConstante<br>
Taxa de quadros : 30.000 FPS<br>
Padrão : NTSC<br>
Color space : YUV<br>
Chroma subsampling : 4:2:0<br>
Bit depth : 10 bits<br>
Bits/(Pixels*Quadros) : 0.071<br>
Time code of first frame : 19:44:36:0000000026<br>
Tamanho da Faixa : 6.86 GiB (96%)<br>
Default : Sim<br>
Forced : Não<br>
Color range : Limited<br>
Color primaries : BT.709<br>
Transfer characteristics : BT.709<br>
Matrix coefficients : BT.709<br>
<br>
Áudio<br>
ID : 2<br>
Formato : E-AC-3 JOC<br>
Formato/Informações : Enhanced AC-3 with Joint Object Coding<br>
Commercial name : Dolby Digital Plus with Dolby Atmos<br>
ID do Codec : A_EAC3<br>
Duração : 55 min 42s<br>
Modo da taxa de bits : Constante<br>
Taxa de bits : 448 kb/s<br>
Nº de canais : 6 canais<br>
Channel layout : L R C LFE Ls Rs<br>
Taxa de amostragem : 48.0 kHz<br>
Taxa de quadros : 31.250 FPS (1536 SPF)<br>
Compression mode : Lossy<br>
Atraso do Video : 32 ms<br>
Tamanho da Faixa : 179 MiB (2%)<br>
Idioma : Inglês<br>
Service kind : Complete Main<br>
Default : Sim<br>
Forced : Não<br>
Complexity index : 12<br>
Number of dynamic objects : 0<br>
Bed channel count : 12 canais<br>
Bed channel configuration : L R C LFE Ls Rs Lb Rb Tfl Tfr Tbl Tbr</div>
</div>
<div class="bbCodeBlock bbCodeVfcHH HiddenContent">
<div class="attribution type">Hidden Content:</div>
<blockquote>You must reply before you can see the hidden data contained here.</blockquote>
</div>
<div class="messageTextEndMarker">&nbsp;</div>
</blockquote>
</article>]]></description>
                <author><![CDATA[SUPREME]]></author>
                </item>

                
                <item>
                <title><![CDATA[【PRORES HD】Tyga &amp; Doja Cat - Freaky Deaky (Master ProRes LPCM 1080p)]]></title>
                <link><![CDATA[https://sharemania.us/threads/tyga-doja-cat-freaky-deaky-master-prores-lpcm-1080p.240595/]]></link>
                <description><![CDATA[<article>
<blockquote class="messageText SelectQuoteContainer ugc baseHtml">
Thanks
<div class="messageTextEndMarker">&nbsp;</div>
</blockquote>
</article>]]></description>
                <author><![CDATA[SUPREME]]></author>
                </item>

                
                <item>
                <title><![CDATA[【Singles (lossless)】FLAC - Dua Lipa - Houdini [Tidal 24-Bit / 44.1 kHz]]]></title>
                <link><![CDATA[https://sharemania.us/threads/dua-lipa-houdini-tidal-24-bit-44-1-khz.240600/]]></link>
                <description><![CDATA[<article>
<blockquote class="messageText SelectQuoteContainer ugc baseHtml">
<div style="text-align: center"><img src="https://i.imgur.com/PJps8Uf.png" class="bbCodeImage LbImage" alt="[​IMG]" data-url="https://i.imgur.com/PJps8Uf.png" style=""> <br>
<br>
<div class="ToggleTriggerAnchor bbCodeSpoilerContainer">
<button type="button" class="button bbCodeSpoilerButton ToggleTrigger Tooltip JsOnly" data-target="> .SpoilerTarget"><span>Spoiler: <span class="SpoilerTitle">Mediainfo</span></span></button>
<div class="SpoilerTarget bbCodeSpoilerText">Format : MPEG-4<br>
Format profile : QuickTime<br>
Codec ID : qt 2005.03 (qt )<br>
File size : 5.14 GiB<br>
Duration : 4 min 20 s<br>
Overall bit rate mode : Variable<br>
Overall bit rate : 170 Mb/s<br>
Frame rate : 23.976 FPS<br>
Encoded date : 2023-03-15 23:04:06 UTC<br>
Tagged date : 2023-03-15 23:04:06 UTC<br>
Writing library : Apple QuickTime<br>
<br>
Video<br>
ID : 1<br>
Format : ProRes<br>
Format version : Version 0<br>
Format profile : 422 HQ<br>
Codec ID : apch<br>
Duration : 4 min 20 s<br>
Bit rate mode : Variable<br>
Bit rate : 168 Mb/s<br>
Width : 1 920 pixels<br>
Height : 960 pixels<br>
Display aspect ratio : 2.000<br>
Frame rate mode : Constant<br>
Frame rate : 23.976 (24000/1001) FPS<br>
Color space : YUV<br>
Chroma subsampling : 4:2:2<br>
Scan type : Progressive<br>
Bits/(Pixel*Frame) : 3.802<br>
Stream size : 5.09 GiB (99%)<br>
Writing library : Apple<br>
Language : English<br>
Encoded date : 2023-03-15 23:04:06 UTC<br>
Tagged date : 2023-03-15 23:04:06 UTC<br>
Color primaries : BT.709<br>
Transfer characteristics : BT.709<br>
Matrix coefficients : BT.709<br>
Menus : 0<br>
<br>
Audio<br>
ID : 2<br>
Format : PCM<br>
Format settings : Little / Signed<br>
Codec ID : sowt<br>
Duration : 4 min 20 s<br>
Bit rate mode : Constant<br>
Bit rate : 1 536 kb/s<br>
Channel(s) : 2 channels<br>
Channel layout : L R<br>
Sampling rate : 48.0 kHz<br>
Bit depth : 16 bits<br>
Stream size : 47.7 MiB (1%)<br>
Language : English<br>
Encoded date : 2023-03-15 23:04:06 UTC<br>
Tagged date : 2023-03-15 23:04:06 UTC<br>
Menus : 0<br>
<br>
Other<br>
ID : 3<br>
Type : Time code<br>
Format : QuickTime TC<br>
Duration : 4 min 20 s<br>
Frame rate : 23.976 (24000/1001) FPS<br>
Time code of first frame : 00:00:00:00<br>
Time code of last frame : 00:04:20:00<br>
Time code, stripped : Yes<br>
Language : English<br>
Encoded date : 2023-03-15 23:04:06 UTC<br>
Tagged date : 2023-03-15 23:04:06 UTC</div>
</div><br>
<div class="bbCodeBlock bbCodeVfcHH HiddenContent">
<div class="attribution type">Hidden Content:</div>
<blockquote>You must either reply or click 'Like' to see the hidden information contained here.</blockquote>
</div></div>
<div class="messageTextEndMarker">&nbsp;</div>
</blockquote>
</article>]]></description>
                <author><![CDATA[abby0511]]></author>
                </item>

                </channel></rss>